<?xml version="1.0" standalone="no"?>
<!DOCTYPE svg PUBLIC "-//W3C//DTD SVG 20010904//EN"
 "http://www.w3.org/TR/2001/REC-SVG-20010904/DTD/svg10.dtd">
<svg version="1.0" xmlns="http://www.w3.org/2000/svg"
 width="700.000000pt" height="700.000000pt" viewBox="0 0 700.000000 700.000000"
 preserveAspectRatio="xMidYMid meet">
<metadata>
Created by potrace 1.14, written by Peter Selinger 2001-2017
</metadata>
<g transform="translate(0.000000,700.000000) scale(0.100000,-0.100000)"
fill="#000000" stroke="none">
<path d="M3915 5820 c-16 -6 -188 -170 -178 -170 3 0 -5 -8 -18 -19 -46 -36
-686 -681 -681 -686 3 -3 -2 -5 -11 -5 -9 0 -17 -7 -17 -14 0 -13 94 -15 683
-15 984 0 880 3 867 -21 -8 -14 -8 -20 0 -20 8 0 8 -6 0 -20 -8 -15 -8 -20 1
-20 8 0 8 -4 -1 -15 -7 -8 -8 -15 -3 -15 5 0 9 -9 9 -19 0 -11 -4 -17 -8 -15
-12 8 -9 -11 4 -24 9 -9 9 -12 -1 -12 -7 0 -9 -5 -5 -12 11 -17 11 -58 1 -58
-4 0 -3 -8 2 -18 6 -11 6 -24 0 -35 -7 -12 -6 -17 3 -17 9 0 9 -3 0 -12 -7 -7
-8 -17 -1 -30 7 -13 6 -18 -3 -18 -9 0 -9 -3 0 -12 7 -7 8 -17 2 -29 -7 -11
-7 -20 0 -24 6 -4 6 -15 0 -30 -7 -17 -6 -25 1 -25 8 0 7 -5 -1 -15 -9 -11 -9
-15 -1 -15 9 0 9 -5 0 -21 -8 -16 -8 -20 1 -14 9 6 9 3 1 -12 -6 -11 -7 -23
-4 -27 10 -10 11 -46 1 -46 -5 0 -4 -8 1 -18 6 -11 6 -24 0 -35 -7 -12 -6 -17
2 -17 8 0 8 -4 -1 -15 -7 -8 -8 -15 -3 -15 5 0 9 -9 9 -19 0 -11 -4 -17 -8
-15 -12 8 -9 -11 4 -24 9 -9 9 -12 -1 -12 -7 0 -9 -5 -5 -12 11 -17 11 -58 1
-58 -4 0 -3 -8 2 -18 6 -11 6 -24 0 -35 -7 -12 -6 -17 3 -17 9 0 9 -3 0 -12
-7 -7 -8 -17 -1 -30 7 -13 6 -18 -3 -18 -9 0 -9 -3 0 -12 7 -7 8 -17 2 -29 -7
-11 -7 -20 0 -24 6 -4 6 -15 0 -30 -7 -17 -6 -25 1 -25 8 0 7 -5 -1 -15 -9
-11 -9 -15 -1 -15 9 0 9 -5 0 -21 -8 -16 -8 -20 1 -14 9 6 9 3 1 -12 -6 -11
-7 -23 -4 -27 10 -10 11 -46 1 -46 -5 0 -4 -8 1 -18 6 -11 6 -24 0 -35 -7 -12
-6 -17 2 -17 8 0 8 -4 -1 -15 -7 -8 -8 -15 -3 -15 5 0 9 -9 9 -19 0 -11 -4
-17 -8 -15 -12 8 -9 -11 4 -24 9 -9 9 -12 -1 -12 -7 0 -9 -5 -5 -12 11 -17 11
-58 1 -58 -4 0 -3 -8 2 -18 6 -11 6 -24 0 -35 -7 -12 -6 -17 3 -17 9 0 9 -3 0
-12 -7 -7 -8 -17 -1 -30 7 -13 6 -18 -3 -18 -9 0 -9 -3 0 -12 7 -7 8 -17 2
-29 -7 -11 -7 -20 0 -24 6 -4 6 -15 0 -30 -7 -17 -6 -25 1 -25 8 0 7 -5 -1
-15 -9 -11 -9 -15 -1 -15 9 0 9 -5 0 -21 -8 -16 -8 -20 1 -14 9 6 9 3 1 -12
-6 -11 -7 -23 -4 -27 10 -10 11 -46 1 -46 -5 0 -4 -8 1 -18 6 -11 6 -24 0 -35
-7 -12 -6 -17 2 -17 8 0 8 -4 -1 -15 -7 -8 -8 -15 -3 -15 5 0 9 -9 9 -19 0
-11 -4 -17 -8 -15 -12 8 -9 -11 4 -24 9 -9 9 -12 -1 -12 -7 0 -9 -5 -5 -12 11
-17 11 -58 1 -58 -4 0 -3 -8 2 -18 6 -11 6 -24 0 -35 -7 -12 -6 -17 3 -17 9 0
9 -3 0 -12 -7 -7 -8 -17 -1 -30 7 -13 6 -18 -3 -18 -9 0 -9 -3 0 -12 7 -7 8
-17 2 -29 -7 -11 -7 -20 0 -24 6 -4 6 -15 0 -30 -7 -17 -6 -25 1 -25 8 0 7 -5
-1 -15 -9 -11 -9 -15 -1 -15 9 0 9 -5 0 -21 -8 -16 -8 -20 1 -14 9 6 9 3 1
-12 -6 -11 -7 -23 -4 -27 10 -10 11 -46 1 -46 -5 0 -4 -8 1 -18 6 -11 6 -24 0
-35 -7 -12 -6 -17 2 -17 8 0 8 -4 -1 -15 -7 -8 -8 -15 -3 -15 5 0 9 -9 9 -19
0 -11 -4 -17 -8 -15 -12 8 -9 -11 4 -24 9 -9 9 -12 -1 -12 -7 0 -9 -5 -5 -12
11 -17 11 -58 1 -58 -4 0 -4 -7 1 -16 5 -9 6 -31 3 -48 -3 -17 -6 -40 -6 -51
0 -20 7 -20 472 -22 l473 -2 4 22 c3 12 4 674 3 1470 -1 797 2 1451 6 1454 5
3 331 5 727 5 l718 -1 0 455 c0 336 -3 454 -11 455 -53 4 -3021 3 -3032 -1z"/>
<path d="M2897 4764 c-3 -4 -27 -6 -52 -6 l-45 1 -1011 -1009 c-556 -556
-1015 -1010 -1020 -1010 -5 0 -8 -3 -7 -7 2 -5 -169 -179 -379 -389 l-382
-381 642 0 c353 -1 650 1 660 4 9 2 15 8 12 13 -3 5 -1 10 5 12 17 5 258 247
252 253 -3 3 -1 5 5 5 12 0 313 299 313 312 0 4 4 8 9 8 12 0 241 230 241 243
0 6 2 8 5 5 7 -6 255 241 255 254 0 5 3 7 8 5 9 -5 131 121 124 128 -3 3 2 5
11 5 10 0 17 8 17 17 0 9 3 14 6 11 7 -8 184 169 184 184 0 6 2 9 5 6 7 -7
175 158 175 172 0 5 5 10 10 10 14 0 50 37 42 44 -3 3 0 6 6 6 15 0 52 37 52
52 0 6 3 9 6 6 7 -7 204 188 204 202 0 6 4 10 9 10 13 0 110 97 104 104 -4 3
-1 6 5 6 6 0 32 21 57 46 l45 46 0 -1086 0 -1086 433 0 434 0 -1 1388 -1 1387
-55 2 c-30 1 -79 3 -108 5 -28 2 -52 -1 -52 -5 0 -5 -5 -5 -11 -2 -9 6 -174
10 -784 17 -136 1 -223 6 -227 13 -5 7 -8 6 -8 -1 0 -13 -98 -13 -118 0 -7 4
-12 3 -12 -2 0 -10 -43 -10 -51 1 -3 4 -8 4 -12 1z"/>
</g>
</svg>
